{
	"asset":{
		"generator":"Khronos glTF Blender I/O v4.0.44",
		"version":"2.0"
	},
	"scene":6,
	"scenes":[
		{
			"name":"Scena"
		},
		{
			"name":"Scena.001",
			"nodes":[
				0,
				1
			]
		},
		{
			"name":"Scena.002",
			"nodes":[
				2
			]
		},
		{
			"name":"Scena.003",
			"nodes":[
				3
			]
		},
		{
			"name":"Scena.004",
			"nodes":[
				4
			]
		},
		{
			"name":"Scena.005",
			"nodes":[
				5,
				6
			]
		},
		{
			"name":"Scena.006",
			"nodes":[
				7,
				8,
				9,
				10,
				11,
				12,
				13,
				14,
				15
			]
		},
		{
			"name":"Scene"
		}
	],
	"nodes":[
		{
			"name":"NotaMusicale"
		},
		{
			"mesh":0,
			"name":"Sfera",
			"translation":[
				0,
				1,
				0
			]
		},
		{
			"mesh":1,
			"name":"NotaMusicale.001",
			"translation":[
				0,
				0.6022875308990479,
				0
			]
		},
		{
			"mesh":2,
			"name":"NotaMusicale.002",
			"rotation":[
				0,
				0,
				0.980911910533905,
				0.19445271790027618
			],
			"scale":[
				1,
				0.630145788192749,
				1
			],
			"translation":[
				0,
				1.1679909229278564,
				0
			]
		},
		{
			"mesh":3,
			"name":"NotaMusicale.003",
			"translation":[
				0,
				0.5368903875350952,
				0
			]
		},
		{
			"mesh":4,
			"name":"NotaMusicale.004",
			"scale":[
				1,
				1.302993893623352,
				1
			],
			"translation":[
				0,
				0.6701423525810242,
				-0.12683899700641632
			]
		},
		{
			"mesh":5,
			"name":"Sfera.001"
		},
		{
			"mesh":6,
			"name":"NotaMusicale.005",
			"scale":[
				1,
				1.3373430967330933,
				1.174008846282959
			],
			"translation":[
				0,
				0.6435257196426392,
				-0.12266845256090164
			]
		},
		{
			"mesh":7,
			"name":"Sfera.002",
			"rotation":[
				0.19611771404743195,
				0,
				0,
				0.9805804491043091
			],
			"scale":[
				1,
				1,
				1.3609473705291748
			],
			"translation":[
				0,
				0.019034361466765404,
				0.06591170281171799
			]
		},
		{
			"mesh":8,
			"name":"Sfera.003",
			"rotation":[
				0.19611771404743195,
				0,
				0,
				0.9805804491043091
			],
			"scale":[
				1,
				1,
				1.3609473705291748
			],
			"translation":[
				0,
				0.019034361466765404,
				0.06591170281171799
			]
		},
		{
			"mesh":9,
			"name":"NotaMusicale.006",
			"scale":[
				1,
				1.3373430967330933,
				1.174008846282959
			],
			"translation":[
				0,
				0.6435257196426392,
				-0.12266845256090164
			]
		},
		{
			"mesh":10,
			"name":"Sfera.004",
			"rotation":[
				0.19611771404743195,
				0,
				0,
				0.9805804491043091
			],
			"scale":[
				1,
				1,
				1.3609473705291748
			],
			"translation":[
				0,
				0.06991273164749146,
				-1.0801868438720703
			]
		},
		{
			"mesh":11,
			"name":"Sfera.005",
			"rotation":[
				0.19611771404743195,
				0,
				0,
				0.9805804491043091
			],
			"scale":[
				1,
				1,
				1.3609473705291748
			],
			"translation":[
				0,
				0.06991273164749146,
				-1.0801868438720703
			]
		},
		{
			"mesh":12,
			"name":"NotaMusicale.007",
			"scale":[
				1,
				1.3373430967330933,
				1.174008846282959
			],
			"translation":[
				0,
				0.6944040656089783,
				-1.26876699924469
			]
		},
		{
			"mesh":13,
			"name":"NotaMusicale.008",
			"scale":[
				1,
				1.3373430967330933,
				1.174008846282959
			],
			"translation":[
				0,
				0.6944040656089783,
				-1.26876699924469
			]
		},
		{
			"mesh":14,
			"name":"NotaMusicale.009",
			"rotation":[
				-0.6923360824584961,
				0,
				0,
				0.7215752005577087
			],
			"scale":[
				1,
				1.1641919612884521,
				1.1742656230926514
			],
			"translation":[
				0,
				1.2833629846572876,
				-0.6991717219352722
			]
		}
	],
	"meshes":[
		{
			"name":"Sfera.004",
			"primitives":[
				{
					"attributes":{
						"POSITION":0,
						"NORMAL":1,
						"TEXCOORD_0":2
					},
					"indices":3
				}
			]
		},
		{
			"name":"Cilindro.005",
			"primitives":[
				{
					"attributes":{
						"POSITION":4,
						"NORMAL":5,
						"TEXCOORD_0":6
					},
					"indices":7
				}
			]
		},
		{
			"name":"Cilindro.006",
			"primitives":[
				{
					"attributes":{
						"POSITION":8,
						"NORMAL":9,
						"TEXCOORD_0":10
					},
					"indices":7
				}
			]
		},
		{
			"name":"Cilindro.007",
			"primitives":[
				{
					"attributes":{
						"POSITION":11,
						"NORMAL":12,
						"TEXCOORD_0":13
					},
					"indices":14
				}
			]
		},
		{
			"name":"Cilindro.008",
			"primitives":[
				{
					"attributes":{
						"POSITION":15,
						"NORMAL":16,
						"TEXCOORD_0":17
					},
					"indices":18
				}
			]
		},
		{
			"name":"Sfera.008",
			"primitives":[
				{
					"attributes":{
						"POSITION":19,
						"NORMAL":20,
						"TEXCOORD_0":21
					},
					"indices":3
				}
			]
		},
		{
			"name":"Cilindro.009",
			"primitives":[
				{
					"attributes":{
						"POSITION":22,
						"NORMAL":23,
						"TEXCOORD_0":24
					},
					"indices":18
				}
			]
		},
		{
			"name":"Sfera.009",
			"primitives":[
				{
					"attributes":{
						"POSITION":25,
						"NORMAL":26,
						"TEXCOORD_0":27
					},
					"indices":3
				}
			]
		},
		{
			"name":"Sfera.010",
			"primitives":[
				{
					"attributes":{
						"POSITION":28,
						"NORMAL":29,
						"TEXCOORD_0":30
					},
					"indices":3
				}
			]
		},
		{
			"name":"Cilindro.011",
			"primitives":[
				{
					"attributes":{
						"POSITION":31,
						"NORMAL":32,
						"TEXCOORD_0":33
					},
					"indices":18
				}
			]
		},
		{
			"name":"Sfera.011",
			"primitives":[
				{
					"attributes":{
						"POSITION":34,
						"NORMAL":35,
						"TEXCOORD_0":36
					},
					"indices":3
				}
			]
		},
		{
			"name":"Sfera.012",
			"primitives":[
				{
					"attributes":{
						"POSITION":37,
						"NORMAL":38,
						"TEXCOORD_0":39
					},
					"indices":3
				}
			]
		},
		{
			"name":"Cilindro.012",
			"primitives":[
				{
					"attributes":{
						"POSITION":40,
						"NORMAL":41,
						"TEXCOORD_0":42
					},
					"indices":18
				}
			]
		},
		{
			"name":"Cilindro.013",
			"primitives":[
				{
					"attributes":{
						"POSITION":43,
						"NORMAL":44,
						"TEXCOORD_0":45
					},
					"indices":18
				}
			]
		},
		{
			"name":"Cilindro.014",
			"primitives":[
				{
					"attributes":{
						"POSITION":46,
						"NORMAL":47,
						"TEXCOORD_0":48
					},
					"indices":18
				}
			]
		}
	],
	"accessors":[
		{
			"bufferView":0,
			"componentType":5126,
			"count":1984,
			"max":[
				0.19999991357326508,
				0.20000000298023224,
				0.1999998539686203
			],
			"min":[
				-0.19999980926513672,
				-0.20000000298023224,
				-0.20000000298023224
			],
			"type":"VEC3"
		},
		{
			"bufferView":1,
			"componentType":5126,
			"count":1984,
			"type":"VEC3"
		},
		{
			"bufferView":2,
			"componentType":5126,
			"count":1984,
			"type":"VEC2"
		},
		{
			"bufferView":3,
			"componentType":5123,
			"count":2880,
			"type":"SCALAR"
		},
		{
			"bufferView":4,
			"componentType":5126,
			"count":2176,
			"max":[
				0.1999998837709427,
				0.597712516784668,
				0.1999998688697815
			],
			"min":[
				-0.1999998390674591,
				-1.1022875308990479,
				-0.19999998807907104
			],
			"type":"VEC3"
		},
		{
			"bufferView":5,
			"componentType":5126,
			"count":2176,
			"type":"VEC3"
		},
		{
			"bufferView":6,
			"componentType":5126,
			"count":2176,
			"type":"VEC2"
		},
		{
			"bufferView":7,
			"componentType":5123,
			"count":3252,
			"type":"SCALAR"
		},
		{
			"bufferView":8,
			"componentType":5126,
			"count":2176,
			"max":[
				0.1999998837709427,
				0.597712516784668,
				0.1999998688697815
			],
			"min":[
				-0.1999998390674591,
				-1.1022875308990479,
				-0.19999998807907104
			],
			"type":"VEC3"
		},
		{
			"bufferView":9,
			"componentType":5126,
			"count":2176,
			"type":"VEC3"
		},
		{
			"bufferView":10,
			"componentType":5126,
			"count":2176,
			"type":"VEC2"
		},
		{
			"bufferView":11,
			"componentType":5126,
			"count":2176,
			"max":[
				0.1999998837709427,
				0.5,
				0.1999998688697815
			],
			"min":[
				-0.1999998390674591,
				-0.5,
				-0.19999998807907104
			],
			"type":"VEC3"
		},
		{
			"bufferView":12,
			"componentType":5126,
			"count":2176,
			"type":"VEC3"
		},
		{
			"bufferView":13,
			"componentType":5126,
			"count":2176,
			"type":"VEC2"
		},
		{
			"bufferView":14,
			"componentType":5123,
			"count":3252,
			"type":"SCALAR"
		},
		{
			"bufferView":15,
			"componentType":5126,
			"count":192,
			"max":[
				0.05000000074505806,
				0.5,
				0.05000000074505806
			],
			"min":[
				-0.05000000074505806,
				-0.5,
				-0.05000000074505806
			],
			"type":"VEC3"
		},
		{
			"bufferView":16,
			"componentType":5126,
			"count":192,
			"type":"VEC3"
		},
		{
			"bufferView":17,
			"componentType":5126,
			"count":192,
			"type":"VEC2"
		},
		{
			"bufferView":18,
			"componentType":5123,
			"count":372,
			"type":"SCALAR"
		},
		{
			"bufferView":19,
			"componentType":5126,
			"count":1984,
			"max":[
				0.19999991357326508,
				0.20000000298023224,
				0.1999998539686203
			],
			"min":[
				-0.19999980926513672,
				-0.20000000298023224,
				-0.20000000298023224
			],
			"type":"VEC3"
		},
		{
			"bufferView":20,
			"componentType":5126,
			"count":1984,
			"type":"VEC3"
		},
		{
			"bufferView":21,
			"componentType":5126,
			"count":1984,
			"type":"VEC2"
		},
		{
			"bufferView":22,
			"componentType":5126,
			"count":192,
			"max":[
				0.05000000074505806,
				0.5,
				0.05000000074505806
			],
			"min":[
				-0.05000000074505806,
				-0.5,
				-0.05000000074505806
			],
			"type":"VEC3"
		},
		{
			"bufferView":23,
			"componentType":5126,
			"count":192,
			"type":"VEC3"
		},
		{
			"bufferView":24,
			"componentType":5126,
			"count":192,
			"type":"VEC2"
		},
		{
			"bufferView":25,
			"componentType":5126,
			"count":1984,
			"max":[
				0.19999991357326508,
				0.20000000298023224,
				0.1999998539686203
			],
			"min":[
				-0.19999980926513672,
				-0.20000000298023224,
				-0.20000000298023224
			],
			"type":"VEC3"
		},
		{
			"bufferView":26,
			"componentType":5126,
			"count":1984,
			"type":"VEC3"
		},
		{
			"bufferView":27,
			"componentType":5126,
			"count":1984,
			"type":"VEC2"
		},
		{
			"bufferView":28,
			"componentType":5126,
			"count":1984,
			"max":[
				0.19999991357326508,
				0.20000000298023224,
				0.1999998539686203
			],
			"min":[
				-0.19999980926513672,
				-0.20000000298023224,
				-0.20000000298023224
			],
			"type":"VEC3"
		},
		{
			"bufferView":29,
			"componentType":5126,
			"count":1984,
			"type":"VEC3"
		},
		{
			"bufferView":30,
			"componentType":5126,
			"count":1984,
			"type":"VEC2"
		},
		{
			"bufferView":31,
			"componentType":5126,
			"count":192,
			"max":[
				0.05000000074505806,
				0.5,
				0.05000000074505806
			],
			"min":[
				-0.05000000074505806,
				-0.5,
				-0.05000000074505806
			],
			"type":"VEC3"
		},
		{
			"bufferView":32,
			"componentType":5126,
			"count":192,
			"type":"VEC3"
		},
		{
			"bufferView":33,
			"componentType":5126,
			"count":192,
			"type":"VEC2"
		},
		{
			"bufferView":34,
			"componentType":5126,
			"count":1984,
			"max":[
				0.19999991357326508,
				0.20000000298023224,
				0.1999998539686203
			],
			"min":[
				-0.19999980926513672,
				-0.20000000298023224,
				-0.20000000298023224
			],
			"type":"VEC3"
		},
		{
			"bufferView":35,
			"componentType":5126,
			"count":1984,
			"type":"VEC3"
		},
		{
			"bufferView":36,
			"componentType":5126,
			"count":1984,
			"type":"VEC2"
		},
		{
			"bufferView":37,
			"componentType":5126,
			"count":1984,
			"max":[
				0.19999991357326508,
				0.20000000298023224,
				0.1999998539686203
			],
			"min":[
				-0.19999980926513672,
				-0.20000000298023224,
				-0.20000000298023224
			],
			"type":"VEC3"
		},
		{
			"bufferView":38,
			"componentType":5126,
			"count":1984,
			"type":"VEC3"
		},
		{
			"bufferView":39,
			"componentType":5126,
			"count":1984,
			"type":"VEC2"
		},
		{
			"bufferView":40,
			"componentType":5126,
			"count":192,
			"max":[
				0.05000000074505806,
				0.5,
				0.05000000074505806
			],
			"min":[
				-0.05000000074505806,
				-0.5,
				-0.05000000074505806
			],
			"type":"VEC3"
		},
		{
			"bufferView":41,
			"componentType":5126,
			"count":192,
			"type":"VEC3"
		},
		{
			"bufferView":42,
			"componentType":5126,
			"count":192,
			"type":"VEC2"
		},
		{
			"bufferView":43,
			"componentType":5126,
			"count":192,
			"max":[
				0.05000000074505806,
				0.5,
				0.05000000074505806
			],
			"min":[
				-0.05000000074505806,
				-0.5,
				-0.05000000074505806
			],
			"type":"VEC3"
		},
		{
			"bufferView":44,
			"componentType":5126,
			"count":192,
			"type":"VEC3"
		},
		{
			"bufferView":45,
			"componentType":5126,
			"count":192,
			"type":"VEC2"
		},
		{
			"bufferView":46,
			"componentType":5126,
			"count":192,
			"max":[
				0.05000000074505806,
				0.5,
				0.05000000074505806
			],
			"min":[
				-0.05000000074505806,
				-0.5,
				-0.05000000074505806
			],
			"type":"VEC3"
		},
		{
			"bufferView":47,
			"componentType":5126,
			"count":192,
			"type":"VEC3"
		},
		{
			"bufferView":48,
			"componentType":5126,
			"count":192,
			"type":"VEC2"
		}
	],
	"bufferViews":[
		{
			"buffer":0,
			"byteLength":23808,
			"byteOffset":0,
			"target":34962
		},
		{
			"buffer":0,
			"byteLength":23808,
			"byteOffset":23808,
			"target":34962
		},
		{
			"buffer":0,
			"byteLength":15872,
			"byteOffset":47616,
			"target":34962
		},
		{
			"buffer":0,
			"byteLength":5760,
			"byteOffset":63488,
			"target":34963
		},
		{
			"buffer":0,
			"byteLength":26112,
			"byteOffset":69248,
			"target":34962
		},
		{
			"buffer":0,
			"byteLength":26112,
			"byteOffset":95360,
			"target":34962
		},
		{
			"buffer":0,
			"byteLength":17408,
			"byteOffset":121472,
			"target":34962
		},
		{
			"buffer":0,
			"byteLength":6504,
			"byteOffset":138880,
			"target":34963
		},
		{
			"buffer":0,
			"byteLength":26112,
			"byteOffset":145384,
			"target":34962
		},
		{
			"buffer":0,
			"byteLength":26112,
			"byteOffset":171496,
			"target":34962
		},
		{
			"buffer":0,
			"byteLength":17408,
			"byteOffset":197608,
			"target":34962
		},
		{
			"buffer":0,
			"byteLength":26112,
			"byteOffset":215016,
			"target":34962
		},
		{
			"buffer":0,
			"byteLength":26112,
			"byteOffset":241128,
			"target":34962
		},
		{
			"buffer":0,
			"byteLength":17408,
			"byteOffset":267240,
			"target":34962
		},
		{
			"buffer":0,
			"byteLength":6504,
			"byteOffset":284648,
			"target":34963
		},
		{
			"buffer":0,
			"byteLength":2304,
			"byteOffset":291152,
			"target":34962
		},
		{
			"buffer":0,
			"byteLength":2304,
			"byteOffset":293456,
			"target":34962
		},
		{
			"buffer":0,
			"byteLength":1536,
			"byteOffset":295760,
			"target":34962
		},
		{
			"buffer":0,
			"byteLength":744,
			"byteOffset":297296,
			"target":34963
		},
		{
			"buffer":0,
			"byteLength":23808,
			"byteOffset":298040,
			"target":34962
		},
		{
			"buffer":0,
			"byteLength":23808,
			"byteOffset":321848,
			"target":34962
		},
		{
			"buffer":0,
			"byteLength":15872,
			"byteOffset":345656,
			"target":34962
		},
		{
			"buffer":0,
			"byteLength":2304,
			"byteOffset":361528,
			"target":34962
		},
		{
			"buffer":0,
			"byteLength":2304,
			"byteOffset":363832,
			"target":34962
		},
		{
			"buffer":0,
			"byteLength":1536,
			"byteOffset":366136,
			"target":34962
		},
		{
			"buffer":0,
			"byteLength":23808,
			"byteOffset":367672,
			"target":34962
		},
		{
			"buffer":0,
			"byteLength":23808,
			"byteOffset":391480,
			"target":34962
		},
		{
			"buffer":0,
			"byteLength":15872,
			"byteOffset":415288,
			"target":34962
		},
		{
			"buffer":0,
			"byteLength":23808,
			"byteOffset":431160,
			"target":34962
		},
		{
			"buffer":0,
			"byteLength":23808,
			"byteOffset":454968,
			"target":34962
		},
		{
			"buffer":0,
			"byteLength":15872,
			"byteOffset":478776,
			"target":34962
		},
		{
			"buffer":0,
			"byteLength":2304,
			"byteOffset":494648,
			"target":34962
		},
		{
			"buffer":0,
			"byteLength":2304,
			"byteOffset":496952,
			"target":34962
		},
		{
			"buffer":0,
			"byteLength":1536,
			"byteOffset":499256,
			"target":34962
		},
		{
			"buffer":0,
			"byteLength":23808,
			"byteOffset":500792,
			"target":34962
		},
		{
			"buffer":0,
			"byteLength":23808,
			"byteOffset":524600,
			"target":34962
		},
		{
			"buffer":0,
			"byteLength":15872,
			"byteOffset":548408,
			"target":34962
		},
		{
			"buffer":0,
			"byteLength":23808,
			"byteOffset":564280,
			"target":34962
		},
		{
			"buffer":0,
			"byteLength":23808,
			"byteOffset":588088,
			"target":34962
		},
		{
			"buffer":0,
			"byteLength":15872,
			"byteOffset":611896,
			"target":34962
		},
		{
			"buffer":0,
			"byteLength":2304,
			"byteOffset":627768,
			"target":34962
		},
		{
			"buffer":0,
			"byteLength":2304,
			"byteOffset":630072,
			"target":34962
		},
		{
			"buffer":0,
			"byteLength":1536,
			"byteOffset":632376,
			"target":34962
		},
		{
			"buffer":0,
			"byteLength":2304,
			"byteOffset":633912,
			"target":34962
		},
		{
			"buffer":0,
			"byteLength":2304,
			"byteOffset":636216,
			"target":34962
		},
		{
			"buffer":0,
			"byteLength":1536,
			"byteOffset":638520,
			"target":34962
		},
		{
			"buffer":0,
			"byteLength":2304,
			"byteOffset":640056,
			"target":34962
		},
		{
			"buffer":0,
			"byteLength":2304,
			"byteOffset":642360,
			"target":34962
		},
		{
			"buffer":0,
			"byteLength":1536,
			"byteOffset":644664,
			"target":34962
		}
	],
	"buffers":[
		{
			"byteLength":646200,
			"uri":"doppiaNota.bin"
		}
	]
}
